<svg xmlns="http://www.w3.org/2000/svg" width="247.705" height="71.774" viewBox="0 0 247.705 71.774">
    <defs>
        <style>
            .cls-1{fill:#a50c22}
        </style>
    </defs>
    <g id="Group_4579" data-name="Group 4579" transform="translate(-212.595 -212.598)">
        <g id="Group_4576" data-name="Group 4576">
            <path id="Path_8819" d="M247.451 216.87a1.445 1.445 0 0 1-.157.052c-.708.085-.708.085-1.009-.558-.174-.371-.174-.37-.6-.336-.346.027-.692.057-1.036.07a.378.378 0 0 0-.419.341 6.9 6.9 0 0 1-.205.7l-.858.065c.042-.158.068-.271.1-.381q.582-1.882 1.167-3.764c.094-.309.1-.318.416-.327.705-.02.522-.153.845.5.522 1.06 1.029 2.129 1.543 3.193.066.138.129.278.206.444m-2.356-3.075l-.1.009c-.146.515-.294 1.028-.46 1.607l1.253-.084c-.247-.555-.457-1.05-.7-1.532" class="cls-1" data-name="Path 8819"/>
            <path id="Path_8820" d="M249.581 215.52a1.614 1.614 0 1 1 1.639 1.588 1.518 1.518 0 0 1-1.639-1.588m2.429-.091l-.034-.006a1.912 1.912 0 0 0 0-.214.772.772 0 0 0-1.515-.158 1.389 1.389 0 0 0-.026.844.763.763 0 0 0 .695.573.742.742 0 0 0 .754-.487 3.75 3.75 0 0 0 .127-.552" class="cls-1" data-name="Path 8820"/>
            <path id="Path_8821" d="M254.155 217.485c-.258-.059-.485-.109-.754-.169.236-1.023.467-2.014.7-3.038l.681.138a61.1 61.1 0 0 0-.026.415c.123-.057.22-.108.322-.15a1.256 1.256 0 0 1 1.257.126.745.745 0 0 1 .349.666 2.738 2.738 0 0 1-.054.5 81.354 81.354 0 0 1-.4 1.744c-.015.068-.047.132-.083.237-.243-.058-.478-.112-.742-.173.11-.485.216-.936.315-1.388a6.02 6.02 0 0 0 .121-.632c.036-.352-.073-.532-.343-.623a.64.64 0 0 0-.755.249 1.324 1.324 0 0 0-.163.394c-.124.485-.236.973-.354 1.459-.016.068-.042.135-.078.249" class="cls-1" data-name="Path 8821"/>
            <path id="Path_8822" d="M248.027 212.6h.758c.053.717 0 1.427 0 2.135s-.021 1.428-.032 2.168h-.788c-.016-1.431.072-2.843.063-4.3" class="cls-1" data-name="Path 8822"/>
            <path id="Path_8823" d="M273.789 250.119a25.938 25.938 0 0 1-51.7.128A13.046 13.046 0 0 0 235 261.052a12.915 12.915 0 0 0 12.168-8.64c-.16-.1-.327-.207-.5-.311a9.271 9.271 0 0 1-3.4-3.518 6.612 6.612 0 0 1-.827-2.978 6.007 6.007 0 0 1 .881-3.351 12.375 12.375 0 0 1 1.142-1.557 15.717 15.717 0 0 0 2.184-3.1 7.52 7.52 0 0 0 .835-3.053 9.544 9.544 0 0 0-.227-2.241c-.1-.5-.177-1.01-.26-1.517a2.336 2.336 0 0 1 0-.318 2.333 2.333 0 0 1 .284.146 16.763 16.763 0 0 1 5.6 6.365 11.831 11.831 0 0 1-.469 11.2 10.853 10.853 0 0 1-2.439 2.655c-.316.255-.629.515-.94.776-.1.084-.186.185-.282.274a.427.427 0 0 0-.1.517 13.033 13.033 0 0 0 1.088 2.3 12.758 12.758 0 0 0 8.889 6.146 12.967 12.967 0 0 0 14.2-7.556 14.427 14.427 0 0 0 .957-3.169" class="cls-1" data-name="Path 8823"/>
            <path id="Path_8824" d="M219.026 257.687c-.084-.291-.162-.564-.247-.853a.919.919 0 0 1 .143-.1 1.549 1.549 0 0 0 .993-1.756 3.468 3.468 0 0 0-.35-1.271 1.328 1.328 0 0 0-.711-.674.95.95 0 0 0-1.316.666 9.124 9.124 0 0 0-.144 1.314c-.036.523-.04 1.05-.08 1.573a3.437 3.437 0 0 1-.133.665 2.063 2.063 0 0 1-3.151 1.132 2.683 2.683 0 0 1-1.045-1.287 4.485 4.485 0 0 1-.3-2.665 2.491 2.491 0 0 1 1.779-1.929 1.035 1.035 0 0 1 .172-.021l.264.852a1.735 1.735 0 0 1-.176.1 1.783 1.783 0 0 0-1.168 1.581 3.044 3.044 0 0 0 .618 2.288 1.169 1.169 0 0 0 1.033.47.99.99 0 0 0 .922-.633 3.248 3.248 0 0 0 .2-.865c.048-.523.041-1.051.082-1.575a7.1 7.1 0 0 1 .164-1.238 1.789 1.789 0 0 1 1.7-1.449 1.984 1.984 0 0 1 1.863.928 3.908 3.908 0 0 1 .614 1.591 3.771 3.771 0 0 1 0 1.389 2.18 2.18 0 0 1-1.722 1.763" class="cls-1" data-name="Path 8824"/>
            <path id="Path_8825" d="M221.77 263.893l-.533.448.012.074a2.094 2.094 0 0 1 1.72.8 1.632 1.632 0 0 1 .235 1.885c.155.019.277.038.4.046a2.011 2.011 0 0 1 1.661 1.037 1.5 1.5 0 0 1-.183 1.912 3.014 3.014 0 0 1-.363.343q-1.5 1.175-2.994 2.341c-.047.036-.1.065-.187.127l-.558-.7c.111-.092.2-.172.29-.244.809-.634 1.62-1.264 2.427-1.9a5.638 5.638 0 0 0 .593-.519.868.868 0 0 0 .157-1.086 1.339 1.339 0 0 0-1.756-.657 3.208 3.208 0 0 0-.611.367c-.778.6-1.547 1.2-2.32 1.8-.1.079-.206.153-.33.246l-.555-.713c.112-.1.2-.176.289-.247.837-.657 1.678-1.307 2.51-1.969a3.659 3.659 0 0 0 .589-.571.848.848 0 0 0 .023-1.064 1.336 1.336 0 0 0-1.72-.528 4.842 4.842 0 0 0-.878.547c-.687.517-1.359 1.055-2.038 1.584-.1.08-.206.154-.333.247l-.573-.72 4.513-3.53.514.636" class="cls-1" data-name="Path 8825"/>
            <path id="Path_8826" d="M233.368 226.752l.536.69-.6.517a6903.98 6903.98 0 0 0 2.969 3.81 1.75 1.75 0 0 1-.26.072c-.142.016-.288 0-.429.028a.7.7 0 0 1-.749-.338c-.666-.89-1.36-1.758-2.045-2.634-.079-.1-.164-.2-.263-.324a4.392 4.392 0 0 0-1.126.951l3.384 3.51c-.4.068-.737.139-1.073.174-.082.009-.19-.083-.261-.154-.387-.39-.766-.789-1.148-1.182-.082-.084-.169-.162-.29-.277l-1.008 1.113.8.745a.39.39 0 0 1-.389.193c-.43 0-.86-.01-1.29-.018a.464.464 0 0 1-.491-.286.531.531 0 0 1 .129-.591c.461-.5.912-1.011 1.366-1.518.08-.089.154-.18.26-.3l-.711-.734c-.855.734-1.5 1.613-2.291 2.409l-.663-.587 1.726-1.919c.1.072.184.129.266.185l.022-.027-.159-.233a25.258 25.258 0 0 1 3.79-3.271" class="cls-1" data-name="Path 8826"/>
            <path id="Path_8827" d="M255.532 224.546l.079.761c-.284.028-.531.05-.776.08a1.491 1.491 0 0 0-.312.073.373.373 0 0 0-.3.43.39.39 0 0 0 .348.4 3.631 3.631 0 0 0 .743-.025 2.482 2.482 0 0 0 .412-.117l-.034.4a9.866 9.866 0 0 0 .8-2.173l-2.69-.752.234-.837c.107.016.187.019.263.039q.845.24 1.688.483l1.384.393a4.678 4.678 0 0 0-.32-.41 5.526 5.526 0 0 0-1.826-1.3.448.448 0 0 1-.33-.478c0-.236-.035-.471-.06-.785a3.953 3.953 0 0 1 1.9 1.27 1.356 1.356 0 0 0-.024-.223c-.1-.3-.208-.61-.321-.912a.725.725 0 0 0-.415-.508.264.264 0 0 1-.132-.188c-.038-.306-.056-.614-.088-.994a8 8 0 0 1 1 .475.975.975 0 0 1 .321.5c.173.534.332 1.072.459 1.618.139.592.25 1.192.34 1.794.043.282.126.476.428.523a1.01 1.01 0 0 1 .2.1l-.285.817-.751-.239c-.317.748-.561 1.518-.843 2.273s-.548 1.5-.847 2.317c-.236-.327-.439-.587-.615-.868a.43.43 0 0 1 .009-.3c.094-.3.205-.605.327-.958h-.448a1.411 1.411 0 0 1-1.465-1.363 1.04 1.04 0 0 1 .475-.982 2.168 2.168 0 0 1 1.458-.32" class="cls-1" data-name="Path 8827"/>
            <path id="Path_8828" d="M245.528 223.033a2.716 2.716 0 0 1-.062-.3c-.015-.177-.018-.355-.028-.563.391-.034.757-.066 1.122-.1.3-.023.6-.047.9-.064a.667.667 0 0 1 .54.1c.057.05.185.025.278.025h2.053a1.934 1.934 0 0 1 .03.883l-.748.035c-.009.144-.023.27-.023.4 0 1.338 0 2.677-.006 4.016a.536.536 0 0 0 .248.5 1.269 1.269 0 0 1 .4 1.453 1.138 1.138 0 0 1-1.139.814 1.824 1.824 0 0 1-1.237-.394 4.075 4.075 0 0 1-.52-.489 11.764 11.764 0 0 1-1.081-1.535.515.515 0 0 1 .66.246 4.3 4.3 0 0 0 .98 1.135 1.377 1.377 0 0 0 1.331.324.6.6 0 0 0 .47-.563.464.464 0 0 0-.656-.494 1.8 1.8 0 0 0-.414.276 2.168 2.168 0 0 0-.237.258l-.46-.667a1.156 1.156 0 0 1 1.169-.61c-.029-.178-.164-.225-.265-.283a.443.443 0 0 1-.227-.446c.011-.573 0-1.147 0-1.721 0-.127-.01-.256-.019-.431-.562.047-1.1.075-1.623.14a.462.462 0 0 0-.376.564 1.908 1.908 0 0 0 .166.507 4.175 4.175 0 0 0 .869 1.176c.077.074.163.138.281.238l-.35.26a1.353 1.353 0 0 1-.2-.157c-.34-.4-.7-.787-1.009-1.209a2.36 2.36 0 0 1-.477-1.474.925.925 0 0 1 .26-.686.72.72 0 0 1 .363-.2c.64-.068 1.282-.109 1.961-.163.029.212.057.394.082.579a3.607 3.607 0 0 0 .015-1.358l-.341-.02c-.07-.005-.164.016-.21-.021-.214-.174-.452-.1-.685-.087-.5.033-1 .073-1.5.107-.093.007-.185 0-.287 0" class="cls-1" data-name="Path 8828"/>
            <path id="Path_8829" d="M258.936 277.314c-.318-.936-.607-1.789-.91-2.677.3-.1.568-.2.868-.3.864 2.5 1.717 4.983 2.584 7.5l-.792.273-.252-.6c-.061.106-.1.169-.134.236a2.057 2.057 0 0 1-2.041 1.163 2.542 2.542 0 0 1-1.939-1.2 4.14 4.14 0 0 1-.7-2.615 2.187 2.187 0 0 1 3.065-1.872c.051.028.109.041.249.1m-2.407 2.1a3.945 3.945 0 0 0 .725 2 1.588 1.588 0 0 0 1.166.689 1.452 1.452 0 0 0 1.56-1.567 3.736 3.736 0 0 0-.823-2.213 1.49 1.49 0 0 0-1.671-.5 1.532 1.532 0 0 0-.957 1.591" class="cls-1" data-name="Path 8829"/>
            <path id="Path_8830" d="M253.764 275.817l.2 1.045c-.305.064-.572.117-.854.175-.045-.065-.09-.126-.163-.229a.978.978 0 0 0-.059.112l-1.146 3.242-1.356 3.853c-.117.333-.119.333-.48.344-.18.006-.357.01-.537.013-.035 0-.071-.008-.155-.017-1.1-2.566-2.205-5.154-3.339-7.8l1.088-.05 2.746 6.925a1.474 1.474 0 0 0 .11-.208l2.163-6.605c.092-.284.1-.288.4-.3.152-.009.3-.013.468-.021l.064-.317.85-.156" class="cls-1" data-name="Path 8830"/>
            <path id="Path_8831" d="M272.187 275.218c-.113.1-.191.172-.271.239-.147.122-.294.238-.457.37l-.561-.364c-.146.1-.123.277-.164.414a2.992 2.992 0 0 1-1.489 1.845 1.646 1.646 0 0 1-1 .227 1.606 1.606 0 0 1-1.333-2.139 2.741 2.741 0 0 1 .589-.933q.6-.663 1.2-1.333a4.565 4.565 0 0 0 .272-.384c-.159-.171-.3-.342-.464-.493a.779.779 0 0 0-.77-.173 2.313 2.313 0 0 0-1.371 1.082.982.982 0 0 0-.065.734c.027.126.073.25.127.427-.241.144-.488.3-.755.456a1.725 1.725 0 0 1-.179-1.574 3.648 3.648 0 0 1 2.3-2.055 1.257 1.257 0 0 1 1.316.35 7.113 7.113 0 0 1 .57.642c.32.387.623.787.949 1.168a5.168 5.168 0 0 0 1.553 1.494m-2.747-1.457c-.243.316-.447.6-.666.86s-.472.539-.7.808a1.794 1.794 0 0 0-.166.233.862.862 0 0 0 .028 1.035.9.9 0 0 0 1.03.289 2 2 0 0 0 1.24-1.7 2.315 2.315 0 0 0-.761-1.529" class="cls-1" data-name="Path 8831"/>
            <path id="Path_8832" d="M237.461 278.584l-.795-.358a1.8 1.8 0 0 1 1.645-1.125 3.974 3.974 0 0 1 2.319.613 1.361 1.361 0 0 1 .658 1.632c-.195.786-.435 1.564-.645 2.348-.1.379-.2.762-.262 1.15a4.773 4.773 0 0 0-.007.742c-.208-.056-.378-.1-.547-.148-.395-.113-.409-.134-.386-.547 0-.069.011-.138.019-.223-.166-.064-.29.041-.413.086a2.974 2.974 0 0 1-2.493-.2 1.544 1.544 0 0 1-.713-2.078 1.561 1.561 0 0 1 1.447-.946 8.809 8.809 0 0 1 1.21.09c.463.044.924.105 1.388.145.306.025.331 0 .415-.312a.977.977 0 0 0-.569-1.3 4.119 4.119 0 0 0-.988-.294 1.04 1.04 0 0 0-1.018.4c-.084.1-.164.2-.265.324m2.523 1.94a1.226 1.226 0 0 0-.166-.04c-.534-.043-1.069-.089-1.6-.126a5.179 5.179 0 0 0-.715-.022.82.82 0 0 0-.777.631.832.832 0 0 0 .331.948 2.029 2.029 0 0 0 .717.3 1.657 1.657 0 0 0 1.773-.565 2.989 2.989 0 0 0 .442-1.13" class="cls-1" data-name="Path 8832"/>
            <path id="Path_8833" d="M226.586 277.384l-.713-.625.271-.665-.444-.044a2.9 2.9 0 0 1-2.217-1.345 1.568 1.568 0 0 1 .933-2.394 1.748 1.748 0 0 1 1.253.15c.287.144.555.323.831.49.419.252.831.517 1.257.757.278.156.309.137.508-.1a.987.987 0 0 0 .016-1.449 4.006 4.006 0 0 0-.691-.615 1.09 1.09 0 0 0-1.247-.068c-.082.045-.166.087-.275.143-.191-.221-.377-.432-.581-.666a1.753 1.753 0 0 1 1.614-.43 3.724 3.724 0 0 1 2.261 1.754 1.33 1.33 0 0 1-.145 1.633c-.472.584-.972 1.148-1.46 1.72-.039.045-.08.088-.118.134a4.784 4.784 0 0 0-1.053 1.624m.968-2.957c-.089-.06-.125-.087-.164-.108-.477-.269-.954-.538-1.432-.8a4.6 4.6 0 0 0-.569-.3.865.865 0 0 0-1.155.477.927.927 0 0 0 .158.943 2.025 2.025 0 0 0 .966.7 1.518 1.518 0 0 0 1.654-.34c.178-.174.341-.362.542-.577" class="cls-1" data-name="Path 8833"/>
            <path id="Path_8834" d="M278.329 259.628c-.128.262-.25.517-.382.786a1.822 1.822 0 0 1-1.071-1.755 4.087 4.087 0 0 1 .614-2.107 1.419 1.419 0 0 1 1.8-.7c.688.2 1.364.434 2.049.643a5.337 5.337 0 0 0 2.089.408c-.087.273-.162.509-.235.747a.221.221 0 0 1-.247.162c-.153-.006-.306-.016-.511-.027.044.166.077.31.122.451a2.956 2.956 0 0 1-.24 2.355 1.559 1.559 0 0 1-1.754.872 1.578 1.578 0 0 1-1.283-1.558 8.143 8.143 0 0 1 .107-1.172c.062-.5.147-.993.206-1.489.036-.3.008-.324-.265-.413a1 1 0 0 0-1.368.558 4.3 4.3 0 0 0-.316 1.055.947.947 0 0 0 .327.87l.356.318m2-2.419c-.047.46-.088.9-.138 1.335-.038.319-.1.636-.126.956a.882.882 0 0 0 .671.969.9.9 0 0 0 1.024-.47 2.04 2.04 0 0 0 .219-1.553 1.769 1.769 0 0 0-1.65-1.237" class="cls-1" data-name="Path 8834"/>
            <path id="Path_8835" d="M279.328 266.622c-.148.272-.281.51-.438.795-2.327-1.278-4.622-2.56-6.945-3.847.16-.284.3-.529.455-.811l2.473 1.365c-.028-.183-.039-.286-.059-.389a2.365 2.365 0 0 1 1.009-2.365 1.442 1.442 0 0 1 1.235-.179 4.11 4.11 0 0 1 .792.325c1.039.564 2.071 1.142 3.1 1.715.051.029.1.064.18.119l-.432.789c-.134-.066-.239-.115-.342-.171-.929-.514-1.856-1.033-2.79-1.543a2.951 2.951 0 0 0-.589-.256 1.034 1.034 0 0 0-1.154.364 1.471 1.471 0 0 0 .225 2.183c.546.381 1.145.688 1.724 1.021.444.255.9.5 1.346.747.061.034.117.078.206.138" class="cls-1" data-name="Path 8835"/>
            <path id="Path_8836" d="M268.443 238.139c-.158.077-.273.14-.392.191-.26.114-.448-.005-.458-.291a.584.584 0 0 1 .019-.213c.11-.366.222-.732.348-1.092a.671.671 0 0 1 .183-.257c.25-.227.411-.2.591.086.037.058.082.112.148.2l1.209-.668a9.319 9.319 0 0 0-.745-1.268c-1.388.867-2.74 1.709-4.13 2.578a1.788 1.788 0 0 1-.033-.272c.006-.19.04-.381.031-.57a.485.485 0 0 1 .276-.489c.988-.6 1.966-1.221 2.948-1.836.109-.069.217-.142.359-.236-.105-.2-.2-.377-.324-.6l.744-.468a44.793 44.793 0 0 1 2.583 4.366l-.756.421-.466-.784-1.244.69.645 1.191-.869.49c-.226-.393-.436-.763-.667-1.168" class="cls-1" data-name="Path 8836"/>
            <path id="Path_8837" d="M233.74 226.379l1.333-.742c.437-.243.873-.488 1.336-.745a1.03 1.03 0 0 0-.182-.155c-.371-.162-.739-.334-1.121-.469a1.281 1.281 0 0 0-1.139.1.466.466 0 0 1-.641-.068 6.948 6.948 0 0 0-.58-.444 2.231 2.231 0 0 1 1.807-.414 9.824 9.824 0 0 1 2.149.968.414.414 0 0 0 .583-.012l.444.783-.793.471.837 1.537-.705.39c-.155.088-.314.171-.467.264a.665.665 0 0 0-.246.977.928.928 0 0 0 1.382.169c-.024-.034-.043-.074-.072-.108a.558.558 0 0 1-.108-.714.7.7 0 0 1 .712-.379.46.46 0 0 1 .253.116c.269.308.536.626.385 1.087a.532.532 0 0 0 0 .129 2.148 2.148 0 0 1 .87.575c-.194.111-.374.214-.532.307-.242-.14-.455-.265-.67-.386a.327.327 0 0 0-.337 0 1.944 1.944 0 0 1-2.571-.749 2.236 2.236 0 0 1-.272-.73.775.775 0 0 1 .469-.91c.208-.118.415-.235.622-.355.02-.011.033-.034.084-.092l-.391-.722-2 1.1c-.149-.264-.284-.509-.436-.781" class="cls-1" data-name="Path 8837"/>
            <path id="Path_8838" d="M217.145 264.523a2.2 2.2 0 0 1-1.434-.549 2.877 2.877 0 0 1-1.039-1.941 2.345 2.345 0 0 1 .9-2.186 4.289 4.289 0 0 1 2.278-.963 2.3 2.3 0 0 1 1.506.356 2.884 2.884 0 0 1 1.26 2.815 2.419 2.419 0 0 1-.627 1.265 4.368 4.368 0 0 1-2.843 1.2m.935-4.707a3.4 3.4 0 0 0-2.154 1 1.628 1.628 0 0 0 1.21 2.761 3.177 3.177 0 0 0 2.239-.986 1.537 1.537 0 0 0 .321-1.788 1.614 1.614 0 0 0-1.616-.983" class="cls-1" data-name="Path 8838"/>
            <path id="Path_8839" d="M226.087 236.244l-.385.565a125.05 125.05 0 0 0-.736-.449 27.023 27.023 0 0 1 2.7-4.089l.7.5-.446.664 3.934 2.87a4.693 4.693 0 0 1-1.011.36c-.1.022-.243-.072-.343-.145-.931-.669-1.856-1.344-2.784-2.017-.114-.082-.232-.163-.371-.259a6.106 6.106 0 0 0-.754 1.144l4.159 2.5a3.977 3.977 0 0 1-.975.474c-.081.031-.222-.056-.319-.115-.974-.58-1.946-1.167-2.917-1.749-.141-.086-.286-.164-.448-.258" class="cls-1" data-name="Path 8839"/>
            <path id="Path_8840" d="M260.091 276.3l.874-.468 3.586 3.276a.6.6 0 0 0 .02-.143q-.273-1.788-.548-3.574c-.045-.3-.074-.593-.125-.886a.259.259 0 0 1 .154-.319c.2-.1.4-.2.634-.323.08.575.155 1.105.224 1.634.211 1.586.426 3.171.623 4.76a9.669 9.669 0 0 1 .09 1.391 1.412 1.412 0 0 1-1.077 1.4c-.261.072-.288.065-.446-.157-.1-.146-.2-.294-.316-.468l.369-.157a.964.964 0 0 0 .662-1.066v-.036a1.485 1.485 0 0 0-.581-1.227c-1.317-1.1-2.6-2.257-3.887-3.394-.078-.068-.152-.142-.254-.241" class="cls-1" data-name="Path 8840"/>
            <path id="Path_8841" d="M232.493 274.4c.326.173.6.315.882.468l-.71 4.811 3.61-3.268.779.41a1.268 1.268 0 0 1-.158.207q-2.548 2.255-5.107 4.5a3.859 3.859 0 0 1-.9.583 1.368 1.368 0 0 1-1.53-.266.289.289 0 0 1-.106-.375c.077-.184.15-.371.237-.586.141.1.255.177.374.248a.973.973 0 0 0 1.252-.09 1.582 1.582 0 0 0 .683-1.179c.161-1.6.39-3.2.593-4.8.026-.2.058-.4.1-.667" class="cls-1" data-name="Path 8841"/>
            <path id="Path_8842" d="M262.348 227.108c.17-.147.341-.292.542-.463.065.051.19.142.311.236.461.36.919.722 1.382 1.081.11.085.211.165.117.329.058-.033.117-.068.21-.119l2.192 2.042-.591.654a29.421 29.421 0 0 0-2.946-2.525l-3.005 3.843c-.125-.384-.241-.7-.322-1.012a.416.416 0 0 1 .1-.283c.177-.25.37-.49.584-.768l-.249-.059a1.44 1.44 0 0 1-.8-2.206 1.106 1.106 0 0 1 1.231-.442c.642.15.711.245.661.891-.006.069-.023.135-.041.23a2.909 2.909 0 0 0-.381-.142 4.6 4.6 0 0 0-.77-.127.673.673 0 0 0-.387.148.3.3 0 0 0 0 .512 1.152 1.152 0 0 0 .732.246h.753l1.132-1.451c-.145-.12-.265-.215-.382-.312-.1-.079-.186-.161-.079-.295z" class="cls-1" data-name="Path 8842"/>
            <path id="Path_8843" d="M239.684 223.519l.235.459.045-.016-.107-.505a12.232 12.232 0 0 1 2.366-.666l.218.789c-.263.086-.485.162-.751.252l1.325 4.651a4.2 4.2 0 0 1-1.031-.3c-.064-.023-.1-.148-.134-.235-.086-.258-.159-.52-.247-.817-.121.089-.21.16-.3.226a1.443 1.443 0 0 1-2.167-.852 1.323 1.323 0 0 1 .956-1.484.276.276 0 0 1 .195.044c.177.137.345.285.533.444-.2.131-.37.234-.527.357a1.2 1.2 0 0 0-.477.61.424.424 0 0 0 .1.463c.135.123.289.075.436.009a1.546 1.546 0 0 0 .668-.628c.073-.118.153-.231.257-.391-.164-.567-.342-1.182-.533-1.849-.91.327-1.749.719-2.662 1.057l-.341-.826 1.953-.788" class="cls-1" data-name="Path 8843"/>
            <path id="Path_8844" d="M262.835 233.849c-.245-.029-.377-.127-.388-.363a7 7 0 0 1 .127-2.032 1.687 1.687 0 0 1 .791-1.063.939.939 0 0 1 1.513.779l.017.243c.775-.025.972.17.918.926l.339-.12c.1.111.2.213.281.325.25.335.867.135 1.007-.232a.385.385 0 0 0-.093-.4c-.174-.211-.342-.427-.533-.666l.675-.56c.551.612 1.028 1.259 1.577 1.916l-.683.561-.441-.485c-.068.082-.129.148-.183.22a1.718 1.718 0 0 1-1.005.638 1.221 1.221 0 0 1-.817-.146.423.423 0 0 0 .013.589 1.6 1.6 0 0 0 .784.541c.145.051.3.077.507.129a8.137 8.137 0 0 1-.838.674c-.048.034-.164.008-.233-.024a1.438 1.438 0 0 1-.936-1.9c.093-.292.245-.566.37-.854-.254-.417-.538-.457-.878-.109-.2.205-.392.416-.622.66l-.325-.731c.161-.175.319-.351.48-.524.123-.133.264-.256.148-.465a.582.582 0 0 0-.611-.278.892.892 0 0 0-.575.5 4.043 4.043 0 0 0-.311 1.354c-.03.293-.05.588-.075.89" class="cls-1" data-name="Path 8844"/>
            <path id="Path_8845" d="M268.8 270.614l.651-.709 4.423 1.913a4.92 4.92 0 0 0-.414-.866c-.138-.291-.29-.576-.437-.862s-.292-.575-.438-.862l-.44-.86c-.146-.287-.288-.573-.441-.875l.64-.69c.117.224.212.4.3.58l2.261 4.593c.158.322.16.324-.083.58-.424.447-.288.414-.832.192q-2.437-.988-4.87-1.987c-.095-.039-.189-.085-.322-.147" class="cls-1" data-name="Path 8845"/>
            <path id="Path_8846" d="M217.306 235.933c.138.315.243.594.382.854a.585.585 0 0 0 .277.2c.3.136.614.256.965.4-.1.264-.2.5-.307.775l-4.029-1.63c.108-.266.2-.494.314-.768.586.231 1.154.455 1.719.68l.061-.062c-.052-.114-.1-.229-.153-.342-.277-.583-.55-1.167-.835-1.745a.51.51 0 0 1-.016-.477c.109-.234.2-.478.325-.774.086.178.149.3.206.428.205.457.407.916.612 1.373.14.309.15.313.491.245.773-.15 1.546-.305 2.318-.456.125-.023.251-.036.434-.062-.132.331-.231.611-.36.876a.39.39 0 0 1-.263.139c-.623.1-1.249.191-1.875.284-.07.01-.137.031-.266.061" class="cls-1" data-name="Path 8846"/>
            <path id="Path_8847" d="M235.326 219.9c.251-.067.5-.137.749-.2a.233.233 0 0 1 .162.048.5.5 0 0 0 .51.048c.511-.17.632-.42.448-.93-.043-.122-.1-.24-.164-.406-.068.1-.115.16-.151.226a1.138 1.138 0 0 1-1.743.371 1.937 1.937 0 0 1-.746-1.871 1.183 1.183 0 0 1 1.6-.959c.065.022.131.041.232.074l-.067-.383.627-.238a1.406 1.406 0 0 1 .108.19c.319.823.645 1.645.946 2.475a4.108 4.108 0 0 1 .193.867.765.765 0 0 1-.3.7 2.482 2.482 0 0 1-1.642.61.759.759 0 0 1-.768-.621m-.167-2.521a1.645 1.645 0 0 0 .335.916.661.661 0 0 0 .75.271.707.707 0 0 0 .494-.708 1.464 1.464 0 0 0-.392-.971.681.681 0 0 0-1.187.492" class="cls-1" data-name="Path 8847"/>
            <path id="Path_8848" d="M221.9 225.932l.559-.532 1.792.94.055-.052c-.307-.6-.7-1.145-1.032-1.757l.526-.55 1.822 1.028a4.048 4.048 0 0 0-.481-.961c-.161-.305-.336-.6-.515-.916.169-.179.323-.34.477-.5a19.115 19.115 0 0 1 1.591 2.867l-.553.506c-.548-.3-1.125-.619-1.7-.936l-.061.064c.31.57.675 1.11 1.01 1.7l-.533.566c-.969-.483-1.928-.958-2.953-1.467" class="cls-1" data-name="Path 8848"/>
            <path id="Path_8849" d="M232.379 216.222l2.1 3.79c-.208.121-.4.234-.6.354-.086-.109-.157-.2-.247-.309a1.454 1.454 0 0 0-.09.167 1.2 1.2 0 0 1-1.995.528 2.258 2.258 0 0 1-.779-1.415 1.224 1.224 0 0 1 1.423-1.394c.056.007.113 0 .231 0l-.728-1.34.688-.382m-.058 2.165a.7.7 0 0 0-.767.731 1.6 1.6 0 0 0 .517 1.028.675.675 0 0 0 .819.132.692.692 0 0 0 .325-.765 1.648 1.648 0 0 0-.494-.892 1.767 1.767 0 0 0-.4-.234" class="cls-1" data-name="Path 8849"/>
            <path id="Path_8850" d="M267.328 223.043l-.309.279-.549-.429c.879-1.149 1.764-2.266 2.661-3.415.118.084.224.154.324.232s.179.151.293.247c-.3.4-.591.781-.914 1.206.14.017.217.029.295.034a1.219 1.219 0 0 1 1.133 1.527 2.139 2.139 0 0 1-1.13 1.41 1.182 1.182 0 0 1-1.761-.888c-.005-.046-.02-.091-.043-.2m.439-.185a.64.64 0 0 0 1 .577 1.644 1.644 0 0 0 .737-.975.6.6 0 0 0-.191-.648.635.635 0 0 0-.659-.154 1.5 1.5 0 0 0-.883 1.2" class="cls-1" data-name="Path 8850"/>
            <path id="Path_8851" d="M283.8 254.508c-.051.3-.1.577-.149.9l-5.648-1c.053-.283.1-.523.147-.795l.777.09c-.217-.264-.415-.467-.568-.7a.965.965 0 0 1-.09-.828 1.7 1.7 0 0 1 .448-.77l.761.441c-.062.114-.11.195-.153.279a1.006 1.006 0 0 0 .481 1.494 4.953 4.953 0 0 0 1.085.346c.853.171 1.714.306 2.57.456.094.017.185.046.339.083" class="cls-1" data-name="Path 8851"/>
            <path id="Path_8852" d="M229.631 239.559v.558c-.192.068-.4.152-.613.213a.625.625 0 0 0-.476.426 1.277 1.277 0 0 1-.275.413.452.452 0 0 1-.523.129.549.549 0 0 1-.383-.433.838.838 0 0 1 .5-.907.431.431 0 0 0 .245-.5c-.03-.257-.209-.37-.429-.24a7.4 7.4 0 0 0-.69.51c-.2.152-.382.326-.592.46a1.362 1.362 0 0 1-.495.192.548.548 0 0 1-.66-.633.374.374 0 0 1 .018-.106c.3-.792.6-1.582.9-2.387a3.306 3.306 0 0 1 .831.268l-.71 1.907.065.034a2.71 2.71 0 0 1 .239-.251 5.994 5.994 0 0 1 .792-.6.769.769 0 0 1 1.131.324 5.318 5.318 0 0 1 .3.77c.1-.015.233-.034.368-.057s.277-.053.462-.088" class="cls-1" data-name="Path 8852"/>
            <path id="Path_8853" d="M267.141 241.443c.091-.4.163-.717.227-1.029.034-.164.173-.184.291-.231q1.326-.541 2.653-1.075c.321-.13.638-.264.985-.406a23.836 23.836 0 0 1-.2-.653l.807-.327.928 2.282c-.273.115-.529.223-.819.343l-.326-.734-2.237.9c-.738.3-1.479.6-2.3.929" class="cls-1" data-name="Path 8853"/>
            <path id="Path_8854" d="M274.308 231.306c.057-.116.1-.21.156-.316a7.191 7.191 0 0 0-.274-.125 1.316 1.316 0 0 1-.709-.765.861.861 0 0 1 .268-1.029.839.839 0 0 1 1.087-.014 6.631 6.631 0 0 1 .527.481c.14.129.278.261.421.389a.539.539 0 0 0 .116.061c.3-.18.351-.278.3-.5a.774.774 0 0 0-.783-.584c-.043-.094-.1-.2-.14-.307s-.07-.194-.11-.312a1 1 0 0 1 1.024.175 2.461 2.461 0 0 1 .7 1.064.759.759 0 0 1-.283.949c-.3.215-.612.413-.922.615a3.236 3.236 0 0 0-.978.83c-.138-.213-.258-.4-.395-.609m1.124-1.048a7.83 7.83 0 0 0-.686-.608.371.371 0 0 0-.6.3.671.671 0 0 0 .142.421c.283.351.71.31 1.139-.115" class="cls-1" data-name="Path 8854"/>
            <path id="Path_8855" d="M221.785 227.14a1.652 1.652 0 0 1 .056 3.3 1.768 1.768 0 0 1-1.7-1.657 1.682 1.682 0 0 1 1.644-1.646m-.157.753a.745.745 0 0 0-.73 1 1.309 1.309 0 0 0 1.1.784.749.749 0 0 0 .708-1.019 1.323 1.323 0 0 0-1.08-.764" class="cls-1" data-name="Path 8855"/>
            <path id="Path_8856" d="M230.13 221.482l.671-.3a1.158 1.158 0 0 1-.178 1.115 1.711 1.711 0 0 1-.96.649 1.273 1.273 0 0 1-1.177-.263 2.126 2.126 0 0 1-.776-1.252 1.3 1.3 0 0 1 .52-1.357 1.345 1.345 0 0 1 1.478-.191 2.07 2.07 0 0 1 .842.816c-.545.431-1.136.784-1.671 1.2a.7.7 0 0 0 .856.372c.306-.1.414-.307.4-.787m-.5-.7c-.33-.432-.7-.509-1.009-.252a.629.629 0 0 0 .011.952l1-.7" class="cls-1" data-name="Path 8856"/>
            <path id="Path_8857" d="M239.018 216.874c.14.444.37.649.683.652s.492-.146.65-.608l.743-.062a1.211 1.211 0 0 1-.533.972 1.808 1.808 0 0 1-1.047.307 1.167 1.167 0 0 1-.921-.407 2.01 2.01 0 0 1-.468-1.831 1.288 1.288 0 0 1 1.092-1 1.309 1.309 0 0 1 1.44.557 1.782 1.782 0 0 1 .336.879l-1.975.545m1.1-.795c-.178-.537-.52-.732-.9-.563a.61.61 0 0 0-.271.882c.381-.1.767-.208 1.173-.319" class="cls-1" data-name="Path 8857"/>
            <path id="Path_8858" d="M278.412 236.2c-.3-.631-.581-1.233-.863-1.829a.634.634 0 0 0-.539.666c.011.36.175.513.709.64l.189.675a1.057 1.057 0 0 1-1.01-.295 1.662 1.662 0 0 1-.529-1.142 1.511 1.511 0 0 1 .147-.685 2.061 2.061 0 0 1 2.056-.914 1.446 1.446 0 0 1 .678 2.353 2 2 0 0 1-.838.531m.079-.937c.451-.172.622-.524.459-.879s-.536-.449-.977-.231l.518 1.11" class="cls-1" data-name="Path 8858"/>
            <path id="Path_8859" d="M272.228 226.277c-.495-.507-.959-.985-1.42-1.46a.668.668 0 0 0-.294.818c.123.318.33.407.889.371.08.114.17.238.255.366.046.068.082.142.13.229a1.084 1.084 0 0 1-1.162-.038 2.523 2.523 0 0 1-.594-.559 1.224 1.224 0 0 1-.1-1.412 2.145 2.145 0 0 1 1.057-.982 1.429 1.429 0 0 1 1.8 1.986 2.291 2.291 0 0 1-.562.681m-.228-.9c.384-.374.409-.751.105-1.026a.63.63 0 0 0-.952.141l.847.885" class="cls-1" data-name="Path 8859"/>
            <path id="Path_8860" d="M260.03 217.752l-1.924-.614a.66.66 0 0 0 .117.855c.277.239.519.219.948-.1l.641.336a1.094 1.094 0 0 1-1.076.525 2.5 2.5 0 0 1-.814-.239 1.216 1.216 0 0 1-.7-1.193 2.171 2.171 0 0 1 .462-1.329 1.356 1.356 0 0 1 1.541-.455 1.313 1.313 0 0 1 .986 1.3 1.949 1.949 0 0 1-.178.915m-.614-.689a.648.648 0 0 0-.112-.8.561.561 0 0 0-.658-.128.548.548 0 0 0-.382.554l1.152.372" class="cls-1" data-name="Path 8860"/>
            <path id="Path_8861" d="M221.314 232.3c-.384-.221-.744-.429-1.106-.633-.217-.124-.432-.254-.658-.362-.332-.159-.56-.114-.734.121a.645.645 0 0 0 .053.852 2.173 2.173 0 0 0 .429.319c.358.218.721.421 1.082.632.09.055.177.114.286.185l-.381.674c-.9-.521-1.788-1.03-2.7-1.56l.337-.614c.133.05.24.091.379.142-.017-.15-.03-.264-.04-.379a1.237 1.237 0 0 1 .138-.727.92.92 0 0 1 1.351-.445c.655.341 1.288.723 1.966 1.107-.138.241-.261.452-.4.688" class="cls-1" data-name="Path 8861"/>
            <path id="Path_8862" d="M280.437 239.086c-.116-.2-.23-.4-.351-.606a.8.8 0 0 0 .008-1.024c-.067-.113-.161-.223-.318-.17a.259.259 0 0 0-.159.292c.006.19.022.381.031.57a6.924 6.924 0 0 1 .027.787.835.835 0 0 1-1.154.749 1.078 1.078 0 0 1-.559-.427 2.168 2.168 0 0 1-.4-1.418 1.088 1.088 0 0 1 .51-.86l.361.665a.787.787 0 0 0-.137 1.057.7.7 0 0 0 .157.193.266.266 0 0 0 .466-.182 2.4 2.4 0 0 0-.017-.357c-.016-.309-.043-.619-.042-.928a.793.793 0 0 1 .543-.8.841.841 0 0 1 .975.248 2.181 2.181 0 0 1 .514 1.454.866.866 0 0 1-.451.759" class="cls-1" data-name="Path 8862"/>
            <path id="Path_8863" d="M228.685 278.715l-.781-.509 3.119-4.807.784.506-3.122 4.81" class="cls-1" data-name="Path 8863"/>
            <path id="Path_8864" d="M277.82 268.926l-.534.763-4.692-3.285.527-.771 4.7 3.293" class="cls-1" data-name="Path 8864"/>
            <path id="Path_8865" d="M255.277 283.608l-.916.164-1.092-5.616c.31-.058.594-.113.916-.176l1.092 5.628" class="cls-1" data-name="Path 8865"/>
            <path id="Path_8866" d="M263.984 216.269l.733.4-1.747 3.16 1.907 1.075c-.108.2-.2.383-.321.6l-2.66-1.472c.7-1.257 1.382-2.493 2.088-3.77" class="cls-1" data-name="Path 8866"/>
            <path id="Path_8867" d="M276.333 233.473l-.469.354a4.456 4.456 0 0 1-.385-.475.7.7 0 0 1 .247-1.094c.373-.238.76-.45 1.14-.675.123-.072.244-.147.383-.231l-.113-.363c.149-.09.3-.178.467-.277l.245.27a.444.444 0 0 0 .141-.05.586.586 0 0 1 .833.015c.091.07.194.125.34.22l-.906.543c.078.165.149.313.236.5-.158.1-.312.195-.486.3l-.343-.469c-.482.283-.955.555-1.422.838a.235.235 0 0 0-.065.371c.046.067.1.132.157.221" class="cls-1" data-name="Path 8867"/>
            <path id="Path_8868" d="M225.05 221.146l.613-.5 2.781 3.314-.6.523-2.8-3.335" class="cls-1" data-name="Path 8868"/>
            <path id="Path_8869" d="M256.76 227.179c.181-.353.333-.659.494-.962.068-.128.19-.131.314-.1a1.236 1.236 0 0 1 .849.659 1.957 1.957 0 0 1-.675 2.5.569.569 0 0 1-.728-.041.4.4 0 0 1 .1-.707 2.5 2.5 0 0 0 .5-.266 1.1 1.1 0 0 0 .316-.377.446.446 0 0 0-.28-.656 2.822 2.822 0 0 0-.6-.078 1.728 1.728 0 0 0-.3.033" class="cls-1" data-name="Path 8869"/>
            <path id="Path_8870" d="M272.222 228.366l-.495-.61 2.43-1.968.44.533-.236.3c.293.043.581.019.773.257a.708.708 0 0 1 .193.514l-.6.227c-.047-.09-.081-.165-.12-.235a.485.485 0 0 0-.719-.241 3.909 3.909 0 0 0-.629.408c-.343.256-.672.529-1.035.817" class="cls-1" data-name="Path 8870"/>
            <path id="Path_8871" d="M223.457 240.027l1.169-3.045.838.32-1.167 3.044-.84-.319" class="cls-1" data-name="Path 8871"/>
            <path id="Path_8872" d="M266.778 219.295l.672.418-1.654 2.651-.675-.416c.559-.9 1.1-1.761 1.657-2.653" class="cls-1" data-name="Path 8872"/>
            <path id="Path_8873" d="M266.107 239.855a1.35 1.35 0 0 1 .733.761.7.7 0 0 1 .013.623 3.209 3.209 0 0 1-.345.582c-.281.356-.585.693-.884 1.034-.149.168-.155.163-.455.057.047-.081.086-.162.137-.235.269-.381.546-.755.808-1.14.179-.264.167-.334-.056-.557-.16-.159-.331-.308-.526-.489.094-.108.182-.214.276-.316s.195-.209.3-.32" class="cls-1" data-name="Path 8873"/>
            <path id="Path_8874" d="M260.237 226.145c-.645-.328-1.257-.642-1.891-.964.138-.271.259-.515.4-.8l1.893.96c-.139.278-.265.527-.4.8" class="cls-1" data-name="Path 8874"/>
            <path id="Path_8875" d="M262.348 227.108l-.009.008c-.087.117-.183.077-.28.016-.535-.334-1.071-.667-1.639-1.023.157-.255.3-.492.47-.763.6.374 1.183.736 1.782 1.111l-.324.651" class="cls-1" data-name="Path 8875"/>
            <path id="Path_8876" d="M271.668 265.753l-.886-.619.537-.757.876.61c-.177.257-.338.489-.527.766" class="cls-1" data-name="Path 8876"/>
            <path id="Path_8877" d="M232.225 271.548l.752.489a5.079 5.079 0 0 1-.566.916c-.254-.165-.5-.322-.773-.5.2-.311.386-.594.587-.906" class="cls-1" data-name="Path 8877"/>
            <path id="Path_8878" d="M267.041 218.884l.38-.612.668.409-.378.616-.67-.413" class="cls-1" data-name="Path 8878"/>
        </g>
        <g id="Group_4577" data-name="Group 4577">
            <path id="Path_8879" d="M296.98 270.749l-3.057-8.236-.8-.1v-.993h3.39v.993l-.844.135 1.941 5.685.173.607h.04l.179-.6 1.968-5.7-.97-.13v-.993h3.289v.993l-.808.1-2.942 8.236z" class="cls-1" data-name="Path 8879"/>
            <path id="Path_8880" d="M303.017 270.749v-.987l1.02-.193V262.6l-1.02-.191v-.993h3.647v.993l-1.013.191v6.967l1.013.193v.987z" class="cls-1" data-name="Path 8880"/>
            <path id="Path_8881" d="M307.516 270.748v-.986l1.026-.2v-6.949l-1.026-.2v-.994h3.91a3.941 3.941 0 0 1 3.655 2.211 5.146 5.146 0 0 1 .525 2.365v.185a5.224 5.224 0 0 1-.513 2.35 3.879 3.879 0 0 1-3.621 2.22zm2.642-1.242h1.231a2.251 2.251 0 0 0 1.4-.44 2.779 2.779 0 0 0 .888-1.191 4.477 4.477 0 0 0 .307-1.7v-.191a4.5 4.5 0 0 0-.307-1.715 2.714 2.714 0 0 0-.888-1.176 2.3 2.3 0 0 0-1.4-.429h-1.231z" class="cls-1" data-name="Path 8881"/>
            <path id="Path_8882" d="M318.65 270.749v-.987l1.013-.193v-2.1l-2.806-4.928-.847-.129v-.993h3.513v.993l-.891.116 1.731 3.269.141.281.025-.013.135-.262 1.871-3.276-1.057-.116v-.993h3.442v.993l-.878.129-2.769 4.8v2.231l1.02.193v.987z" class="cls-1" data-name="Path 8882"/>
            <path id="Path_8883" d="M323.938 270.749v-.987l.678-.1 3.091-8.248h1.57l3.051 8.248.68.1v.987h-2.968v-.987l.666-.122-.493-1.467h-3.473l-.507 1.467.672.122v.987zm3.223-3.814h2.639l-1.211-3.455-.084-.25h-.039l-.089.263z" class="cls-1" data-name="Path 8883"/>
            <path id="Path_8884" d="M336.021 270.749l-3.057-8.236-.8-.1v-.993h3.39v.993l-.846.135 1.942 5.685.173.607h.039l.18-.6 1.968-5.7-.969-.129v-.993h3.289v.993l-.808.1-2.941 8.236z" class="cls-1" data-name="Path 8884"/>
            <path id="Path_8885" d="M342.058 270.749v-.987l1.018-.193V262.6l-1.018-.191v-.993h3.642v.993l-1.013.191v6.967l1.013.193v.987z" class="cls-1" data-name="Path 8885"/>
            <path id="Path_8886" d="M346.557 270.749v-.987l1.018-.193V262.6l-1.018-.191v-.993h3.653v.993l-1.02.191v2.911h4.083V262.6l-1.018-.191v-.993h3.645v.993l-1.02.191v6.967l1.02.193v.987h-3.647v-.987l1.018-.193v-2.8h-4.083v2.8l1.02.193v.987z" class="cls-1" data-name="Path 8886"/>
            <path id="Path_8887" d="M356.312 270.749v-.987l.679-.1 3.09-8.248h1.571l3.051 8.248.678.1v.987h-2.967v-.987l.667-.122-.494-1.467h-3.474l-.507 1.467.673.122v.987zm3.224-3.814h2.635l-1.211-3.455-.084-.25h-.039l-.09.263z" class="cls-1" data-name="Path 8887"/>
            <path id="Path_8888" d="M366.144 270.749v-.987l1.02-.193V262.6l-1.02-.192v-.993h4.313a4.5 4.5 0 0 1 1.8.323 2.5 2.5 0 0 1 1.135.926 2.863 2.863 0 0 1 0 2.885 2.583 2.583 0 0 1-1.084.944 3.828 3.828 0 0 1-1.63.351l-1.9.02v2.7l1.02.193v.987zm2.635-5.14h1.609a2.06 2.06 0 0 0 1.346-.369 1.326 1.326 0 0 0 .435-1.073 1.451 1.451 0 0 0-.422-1.094 1.8 1.8 0 0 0-1.29-.407h-1.678zm3.435 5.14l-1.781-4.295 1.512-.249 1.512 3.391.73.154v1z" class="cls-1" data-name="Path 8888"/>
            <path id="Path_8889" d="M382.835 270.883a4.289 4.289 0 0 1-1.852-.38 2.923 2.923 0 0 1-1.26-1.1 3.183 3.183 0 0 1-.452-1.736V262.6l-1.02-.191v-.993h3.649v.993l-1.018.191v5.064a2.232 2.232 0 0 0 .243 1.087 1.56 1.56 0 0 0 .687.656 2.306 2.306 0 0 0 1.031.219 2.378 2.378 0 0 0 1.054-.219 1.581 1.581 0 0 0 .693-.654 2.177 2.177 0 0 0 .246-1.089V262.6l-1.018-.191v-.993h3.646v.993l-1.013.191v5.064a3.207 3.207 0 0 1-.452 1.749 2.872 2.872 0 0 1-1.265 1.093 4.478 4.478 0 0 1-1.9.375" class="cls-1" data-name="Path 8889"/>
            <path id="Path_8890" d="M388.225 270.749v-.987l1.019-.193V262.6l-1.019-.191v-.993h2.653l4.281 6.813.04-.014V262.6l-1.18-.191v-.993h3.653v.993l-1.018.191v8.147h-1.533l-4.384-6.788-.037.006v5.6l1.18.193v.987z" class="cls-1" data-name="Path 8890"/>
            <path id="Path_8891" d="M398.467 270.749v-.987l1.02-.193V262.6l-1.02-.191v-.993h3.647v.993l-1.012.191v6.967l1.012.193v.987z" class="cls-1" data-name="Path 8891"/>
            <path id="Path_8892" d="M406.7 270.749l-3.057-8.236-.8-.1v-.993h3.39v.993l-.844.135 1.941 5.685.173.607h.04l.179-.6 1.968-5.7-.968-.129v-.993h3.289v.993l-.808.1-2.942 8.236z" class="cls-1" data-name="Path 8892"/>
            <path id="Path_8893" d="M412.735 270.749v-.987l1.02-.193V262.6l-1.02-.191v-.993h7.109v2.4h-1.257l-.109-1.16h-3.108v2.644h3.276v1.25h-3.276v2.967h3.28l.11-1.184H420v2.415z" class="cls-1" data-name="Path 8893"/>
            <path id="Path_8894" d="M421.113 270.749v-.987l1.019-.193V262.6l-1.019-.192v-.993h4.313a4.5 4.5 0 0 1 1.8.323 2.5 2.5 0 0 1 1.134.926 2.635 2.635 0 0 1-1.08 3.829 3.823 3.823 0 0 1-1.631.351l-1.9.02v2.7l1.019.193v.987zm2.634-5.14h1.609a2.055 2.055 0 0 0 1.345-.369 1.326 1.326 0 0 0 .436-1.073 1.448 1.448 0 0 0-.422-1.094 1.8 1.8 0 0 0-1.289-.407h-1.679zm3.436 5.14l-1.783-4.295 1.514-.249 1.511 3.391.731.154v1z" class="cls-1" data-name="Path 8894"/>
            <path id="Path_8895" d="M433.694 270.883a6.34 6.34 0 0 1-1.776-.237 5.272 5.272 0 0 1-1.6-.788v-2.148h1.251l.2 1.392a2.868 2.868 0 0 0 .836.392 3.8 3.8 0 0 0 1.081.147 2.469 2.469 0 0 0 .958-.164 1.347 1.347 0 0 0 .594-.459 1.2 1.2 0 0 0 .2-.7 1.233 1.233 0 0 0-.179-.661 1.569 1.569 0 0 0-.6-.515 5.285 5.285 0 0 0-1.129-.421 8 8 0 0 1-1.746-.666 2.889 2.889 0 0 1-1.058-.923 2.4 2.4 0 0 1 .052-2.6 2.768 2.768 0 0 1 1.13-.91 4.055 4.055 0 0 1 1.674-.34 5.311 5.311 0 0 1 1.836.27 4.4 4.4 0 0 1 1.35.737v2.011h-1.208l-.231-1.308a2.437 2.437 0 0 0-.684-.316 3.272 3.272 0 0 0-.989-.132 2.162 2.162 0 0 0-.859.16 1.384 1.384 0 0 0-.584.452 1.159 1.159 0 0 0-.211.695 1.032 1.032 0 0 0 .186.616 1.623 1.623 0 0 0 .621.477 7.677 7.677 0 0 0 1.18.433 5.508 5.508 0 0 1 2.3 1.115 2.342 2.342 0 0 1 .781 1.814 2.261 2.261 0 0 1-.42 1.356 2.709 2.709 0 0 1-1.18.9 4.541 4.541 0 0 1-1.778.32" class="cls-1" data-name="Path 8895"/>
            <path id="Path_8896" d="M437.957 270.749v-.987l1.018-.193V262.6l-1.018-.191v-.993h3.643v.993l-1.012.191v6.967l1.012.193v.987z" class="cls-1" data-name="Path 8896"/>
            <path id="Path_8897" d="M444.674 270.749v-.987l1.018-.193v-6.916h-1.877l-.141 1.194h-1.212v-2.429h8.083v2.429h-1.218l-.141-1.194h-1.877v6.916l1.018.193v.987z" class="cls-1" data-name="Path 8897"/>
            <path id="Path_8898" d="M454.032 270.749v-.987l1.013-.193v-2.1l-2.808-4.928-.845-.129v-.993h3.508v.993l-.891.116 1.731 3.269.141.281.026-.013.135-.262 1.871-3.276-1.058-.116v-.993h3.445v.993l-.878.129-2.768 4.8v2.231l1.018.193v.987z" class="cls-1" data-name="Path 8898"/>
        </g>
        <g id="Group_4578" data-name="Group 4578">
            <path id="Path_8899" d="M302.463 255.374a17.634 17.634 0 0 1-4.917-.656 14.638 14.638 0 0 1-4.42-2.185v-5.945h3.462l.567 3.851a7.694 7.694 0 0 0 2.317 1.082 10.442 10.442 0 0 0 2.991.41 6.857 6.857 0 0 0 2.653-.453 3.681 3.681 0 0 0 1.642-1.27 3.3 3.3 0 0 0 .569-1.934 3.4 3.4 0 0 0-.5-1.828 4.307 4.307 0 0 0-1.651-1.429 14.655 14.655 0 0 0-3.125-1.163 22.13 22.13 0 0 1-4.836-1.846 8.041 8.041 0 0 1-2.929-2.557 6.648 6.648 0 0 1 .142-7.189 7.641 7.641 0 0 1 3.133-2.52 11.162 11.162 0 0 1 4.633-.941 14.715 14.715 0 0 1 5.086.746 12.179 12.179 0 0 1 3.736 2.041v5.557h-3.391l-.639-3.622a6.812 6.812 0 0 0-1.89-.879 9.238 9.238 0 0 0-2.742-.363 5.981 5.981 0 0 0-2.379.443 3.805 3.805 0 0 0-1.616 1.252 3.186 3.186 0 0 0-.586 1.925 2.867 2.867 0 0 0 .516 1.7 4.467 4.467 0 0 0 1.721 1.323 20.886 20.886 0 0 0 3.266 1.2 15.177 15.177 0 0 1 6.373 3.089 6.488 6.488 0 0 1 2.165 5.023 6.244 6.244 0 0 1-1.161 3.755 7.533 7.533 0 0 1-3.267 2.492 12.6 12.6 0 0 1-4.926.889" class="cls-1" data-name="Path 8899"/>
            <path id="Path_8900" d="M325.574 255.374a10.859 10.859 0 0 1-4.65-.968 10.266 10.266 0 0 1-3.56-2.724 12.511 12.511 0 0 1-2.28-4.154 16.541 16.541 0 0 1-.8-5.254v-.391a16.486 16.486 0 0 1 .8-5.236 12.6 12.6 0 0 1 2.28-4.162 10.2 10.2 0 0 1 3.56-2.733 10.816 10.816 0 0 1 4.632-.968 11.156 11.156 0 0 1 4.739.968 10.084 10.084 0 0 1 3.569 2.733 12.46 12.46 0 0 1 2.254 4.162 16.807 16.807 0 0 1 .781 5.236v.391a16.864 16.864 0 0 1-.781 5.254 12.373 12.373 0 0 1-2.254 4.154 10.153 10.153 0 0 1-3.569 2.724 11.111 11.111 0 0 1-4.721.968m0-3.551a6.042 6.042 0 0 0 3.861-1.2 7.03 7.03 0 0 0 2.254-3.346 15.428 15.428 0 0 0 .737-5.005v-.426a14.981 14.981 0 0 0-.746-4.952 7.161 7.161 0 0 0-2.263-3.338 6.015 6.015 0 0 0-3.861-1.207 5.813 5.813 0 0 0-3.746 1.207 7.317 7.317 0 0 0-2.272 3.338 14.685 14.685 0 0 0-.762 4.952v.426a14.983 14.983 0 0 0 .762 5 7.207 7.207 0 0 0 2.282 3.354 5.869 5.869 0 0 0 3.754 1.2" class="cls-1" data-name="Path 8900"/>
            <path id="Path_8901" d="M339.33 255v-2.734l2.8-.532V232.44l-2.8-.532v-2.752h9.213l7.579 18.692h.107l7.349-18.692h9.322v2.752l-2.822.532v19.294l2.822.532V255h-10.1v-2.734l2.964-.532v-6.017l.035-11.308-.089-.016-8.01 20.022h-3.248l-8.236-19.915-.087.019.231 10.9v6.319l3.07.532V255z" class="cls-1" data-name="Path 8901"/>
            <path id="Path_8902" d="M374.068 255v-2.734l1.882-.266 8.555-22.846h4.349L397.3 252l1.881.265V255h-8.219v-2.734l1.846-.336-1.367-4.066h-9.621l-1.4 4.066 1.864.336V255zM383 244.439h7.295l-3.354-9.567-.23-.692h-.111l-.249.727z" class="cls-1" data-name="Path 8902"/>
            <path id="Path_8903" d="M401.3 255v-2.734l2.822-.532V232.44l-2.822-.532v-2.752h10.1v2.752l-2.8.532v19.294l2.8.532V255z" class="cls-1" data-name="Path 8903"/>
            <path id="Path_8904" d="M420.539 255v-2.734l2.8-.532v-5.822l-7.775-13.651-2.343-.354v-2.752h9.727v2.752l-2.467.319 4.794 9.053.39.781.07-.035.372-.729 5.184-9.071-2.929-.319v-2.752h9.538v2.752l-2.432.354-7.667 13.3v6.176l2.822.532V255z" class="cls-1" data-name="Path 8904"/>
            <path id="Path_8905" d="M435.183 255v-2.734l1.882-.265 8.555-22.846h4.349l8.45 22.845 1.881.265V255h-8.219v-2.734l1.846-.336-1.367-4.066h-9.621l-1.4 4.066 1.863.336V255zm8.928-10.562h7.3l-3.354-9.567-.23-.692h-.107l-.249.727z" class="cls-1" data-name="Path 8905"/>
        </g>
    </g>
</svg>
